# xmcd CD database file
#
# Track frame offsets:
#	150
#	40193
#	75923
#	104009
#	135462
#	170670
#	207872
#	237379
#	261269
#
# Disc length: 3843 seconds
#
# Revision: 1
# Processed by: cddbd v1.5.2PL0 Copyright (c) Steve Scherf et al.
# Submitted via: CDex 1.51
#
DISCID=760f0109
DTITLE=Colleen Allen - Colleen Allen
DYEAR=2006
DGENRE=Jazz
TTITLE0=Long Distance
TTITLE1=Ruwenzori
TTITLE2=Coronation Street
TTITLE3=I Could Have Danced All Night
TTITLE4=Dawn Song
TTITLE5=Lament
TTITLE6=Slanty Planty
TTITLE7=Ninety Nine Binder Twine
TTITLE8=Chase 'N Me
EXTD=YEAR: 2006
EXTT0=
EXTT1=
EXTT2=
EXTT3=
EXTT4=
EXTT5=
EXTT6=
EXTT7=
EXTT8=
PLAYORDER=
